<mxfile host="app.diagrams.net" modified="2021-05-20T17:47:18.176Z" agent="5.0 (Macintosh; Intel Mac OS X 10_15_7) AppleWebKit/537.36 (KHTML, like Gecko) Chrome/90.0.4430.212 Safari/537.36" etag="Wub9FNZBULBmupCxp16Q" version="14.6.13" type="github">
  <diagram id="oAuL8r2PQpCgjncxoZYB" name="Page-1">
    <mxGraphModel dx="1188" dy="741" grid="1" gridSize="10" guides="1" tooltips="1" connect="1" arrows="1" fold="1" page="1" pageScale="1" pageWidth="827" pageHeight="1169" math="0" shadow="0">
      <root>
        <mxCell id="0" />
        <mxCell id="1" parent="0" />
        <mxCell id="wpB4q-9WlWIPLCTxeXKb-2" value="" style="shape=image;html=1;verticalAlign=top;verticalLabelPosition=bottom;labelBackgroundColor=#ffffff;imageAspect=0;aspect=fixed;image=https://cdn4.iconfinder.com/data/icons/logos-and-brands/512/272_Raspberry_Pi_logo-128.png" parent="1" vertex="1">
          <mxGeometry x="80" y="610" width="80" height="80" as="geometry" />
        </mxCell>
        <mxCell id="wpB4q-9WlWIPLCTxeXKb-3" value="" style="shape=image;html=1;verticalAlign=top;verticalLabelPosition=bottom;labelBackgroundColor=#ffffff;imageAspect=0;aspect=fixed;image=https://cdn4.iconfinder.com/data/icons/logos-and-brands/512/272_Raspberry_Pi_logo-128.png" parent="1" vertex="1">
          <mxGeometry x="610" y="610" width="80" height="80" as="geometry" />
        </mxCell>
        <mxCell id="Vg4lKlhlYnW9HOSIbNBA-2" value="return auth token&amp;nbsp;" style="edgeStyle=orthogonalEdgeStyle;rounded=0;orthogonalLoop=1;jettySize=auto;html=1;" edge="1" parent="1">
          <mxGeometry relative="1" as="geometry">
            <mxPoint x="430" y="177" as="sourcePoint" />
            <mxPoint x="781" y="177" as="targetPoint" />
            <Array as="points">
              <mxPoint x="430" y="177" />
              <mxPoint x="781" y="177" />
            </Array>
          </mxGeometry>
        </mxCell>
        <mxCell id="Vg4lKlhlYnW9HOSIbNBA-10" style="edgeStyle=orthogonalEdgeStyle;rounded=0;orthogonalLoop=1;jettySize=auto;html=1;" edge="1" parent="1" source="wpB4q-9WlWIPLCTxeXKb-4" target="wpB4q-9WlWIPLCTxeXKb-6">
          <mxGeometry relative="1" as="geometry">
            <mxPoint x="140" y="250" as="sourcePoint" />
            <mxPoint x="380" y="330" as="targetPoint" />
            <Array as="points">
              <mxPoint x="380" y="230" />
              <mxPoint x="380" y="230" />
            </Array>
          </mxGeometry>
        </mxCell>
        <mxCell id="Vg4lKlhlYnW9HOSIbNBA-11" value="Validate and send response&amp;nbsp;" style="edgeLabel;html=1;align=center;verticalAlign=middle;resizable=0;points=[];" vertex="1" connectable="0" parent="Vg4lKlhlYnW9HOSIbNBA-10">
          <mxGeometry x="-0.1183" y="1" relative="1" as="geometry">
            <mxPoint x="-68" y="-24" as="offset" />
          </mxGeometry>
        </mxCell>
        <mxCell id="wpB4q-9WlWIPLCTxeXKb-4" value="" style="outlineConnect=0;dashed=0;verticalLabelPosition=bottom;verticalAlign=top;align=center;html=1;shape=mxgraph.aws3.cognito;fillColor=#AD688B;gradientColor=none;" parent="1" vertex="1">
          <mxGeometry x="369" y="112" width="60" height="80" as="geometry" />
        </mxCell>
        <mxCell id="wpB4q-9WlWIPLCTxeXKb-6" value="&lt;font style=&quot;font-size: 15px&quot;&gt;&lt;b&gt;Reverse Proxy Server&lt;/b&gt;&lt;/font&gt;" style="shadow=0;dashed=0;html=1;strokeColor=none;fillColor=#4495D1;labelPosition=center;verticalLabelPosition=bottom;verticalAlign=top;align=center;outlineConnect=0;shape=mxgraph.veeam.proxy_server;" parent="1" vertex="1">
          <mxGeometry x="365" y="340" width="76" height="72" as="geometry" />
        </mxCell>
        <mxCell id="wpB4q-9WlWIPLCTxeXKb-7" value="" style="shadow=0;dashed=0;html=1;strokeColor=none;fillColor=#4495D1;labelPosition=center;verticalLabelPosition=bottom;verticalAlign=top;align=center;outlineConnect=0;shape=mxgraph.veeam.2d.web_ui;" parent="1" vertex="1">
          <mxGeometry x="39" y="131" width="60" height="68" as="geometry" />
        </mxCell>
        <mxCell id="wpB4q-9WlWIPLCTxeXKb-8" value="" style="html=1;verticalLabelPosition=bottom;align=center;labelBackgroundColor=#ffffff;verticalAlign=top;strokeWidth=2;strokeColor=#0080F0;shadow=0;dashed=0;shape=mxgraph.ios7.icons.smartphone;" parent="1" vertex="1">
          <mxGeometry x="782.5" y="135" width="29" height="50" as="geometry" />
        </mxCell>
        <mxCell id="wpB4q-9WlWIPLCTxeXKb-9" value="" style="endArrow=classic;html=1;rounded=0;edgeStyle=orthogonalEdgeStyle;exitX=0.534;exitY=1;exitDx=0;exitDy=0;exitPerimeter=0;" parent="1" edge="1">
          <mxGeometry relative="1" as="geometry">
            <mxPoint x="780.9860000000001" y="184.9999999999999" as="sourcePoint" />
            <mxPoint x="424" y="360" as="targetPoint" />
            <Array as="points">
              <mxPoint x="781" y="360" />
            </Array>
          </mxGeometry>
        </mxCell>
        <mxCell id="wpB4q-9WlWIPLCTxeXKb-10" value="Request for resource using auth token" style="edgeLabel;resizable=0;html=1;align=center;verticalAlign=middle;" parent="wpB4q-9WlWIPLCTxeXKb-9" connectable="0" vertex="1">
          <mxGeometry relative="1" as="geometry">
            <mxPoint x="-127" as="offset" />
          </mxGeometry>
        </mxCell>
        <mxCell id="wpB4q-9WlWIPLCTxeXKb-12" value="" style="endArrow=classic;html=1;rounded=0;edgeStyle=orthogonalEdgeStyle;entryX=0.5;entryY=0;entryDx=0;entryDy=0;" parent="1" edge="1" source="wpB4q-9WlWIPLCTxeXKb-6">
          <mxGeometry relative="1" as="geometry">
            <mxPoint x="414" y="376" as="sourcePoint" />
            <mxPoint x="134" y="610" as="targetPoint" />
          </mxGeometry>
        </mxCell>
        <mxCell id="wpB4q-9WlWIPLCTxeXKb-13" value="&lt;font style=&quot;font-size: 15px&quot;&gt;SSH Tunnel&lt;/font&gt;" style="edgeLabel;resizable=0;html=1;align=center;verticalAlign=middle;" parent="wpB4q-9WlWIPLCTxeXKb-12" connectable="0" vertex="1">
          <mxGeometry relative="1" as="geometry">
            <mxPoint y="54" as="offset" />
          </mxGeometry>
        </mxCell>
        <mxCell id="wpB4q-9WlWIPLCTxeXKb-17" value="" style="endArrow=classic;html=1;rounded=0;edgeStyle=orthogonalEdgeStyle;entryX=0.5;entryY=0;entryDx=0;entryDy=0;" parent="1" source="wpB4q-9WlWIPLCTxeXKb-6" edge="1">
          <mxGeometry relative="1" as="geometry">
            <mxPoint x="430" y="380" as="sourcePoint" />
            <mxPoint x="649" y="612" as="targetPoint" />
          </mxGeometry>
        </mxCell>
        <mxCell id="wpB4q-9WlWIPLCTxeXKb-18" value="&lt;font style=&quot;font-size: 15px&quot;&gt;SSH Tunnel&lt;/font&gt;" style="edgeLabel;resizable=0;html=1;align=center;verticalAlign=middle;" parent="wpB4q-9WlWIPLCTxeXKb-17" connectable="0" vertex="1">
          <mxGeometry relative="1" as="geometry">
            <mxPoint y="40" as="offset" />
          </mxGeometry>
        </mxCell>
        <mxCell id="wpB4q-9WlWIPLCTxeXKb-19" value="" style="endArrow=classic;html=1;rounded=0;edgeStyle=orthogonalEdgeStyle;exitX=0.047;exitY=0.031;exitDx=0;exitDy=0;exitPerimeter=0;" parent="1" edge="1" source="wpB4q-9WlWIPLCTxeXKb-8">
          <mxGeometry relative="1" as="geometry">
            <mxPoint x="699" y="190" as="sourcePoint" />
            <mxPoint x="429" y="137" as="targetPoint" />
            <Array as="points">
              <mxPoint x="429" y="137" />
            </Array>
          </mxGeometry>
        </mxCell>
        <mxCell id="wpB4q-9WlWIPLCTxeXKb-20" value="Request for access using credentials if necessary" style="edgeLabel;resizable=0;html=1;align=center;verticalAlign=middle;" parent="wpB4q-9WlWIPLCTxeXKb-19" connectable="0" vertex="1">
          <mxGeometry relative="1" as="geometry" />
        </mxCell>
        <mxCell id="wpB4q-9WlWIPLCTxeXKb-28" value="" style="endArrow=classic;html=1;rounded=0;edgeStyle=orthogonalEdgeStyle;" parent="1" target="wpB4q-9WlWIPLCTxeXKb-4" edge="1" source="wpB4q-9WlWIPLCTxeXKb-6">
          <mxGeometry width="50" height="50" relative="1" as="geometry">
            <mxPoint x="414" y="350" as="sourcePoint" />
            <mxPoint x="124" y="250" as="targetPoint" />
            <Array as="points">
              <mxPoint x="420" y="220" />
              <mxPoint x="420" y="220" />
            </Array>
          </mxGeometry>
        </mxCell>
        <mxCell id="Vg4lKlhlYnW9HOSIbNBA-8" value="Request token validation&amp;nbsp;" style="edgeLabel;html=1;align=center;verticalAlign=middle;resizable=0;points=[];" vertex="1" connectable="0" parent="wpB4q-9WlWIPLCTxeXKb-28">
          <mxGeometry x="-0.1474" relative="1" as="geometry">
            <mxPoint x="62" y="-16" as="offset" />
          </mxGeometry>
        </mxCell>
        <mxCell id="wpB4q-9WlWIPLCTxeXKb-30" value="" style="endArrow=classic;html=1;rounded=0;edgeStyle=orthogonalEdgeStyle;" parent="1" edge="1">
          <mxGeometry width="50" height="50" relative="1" as="geometry">
            <mxPoint x="93.00000000000045" y="213" as="sourcePoint" />
            <mxPoint x="379" y="360" as="targetPoint" />
            <Array as="points">
              <mxPoint x="93" y="360" />
            </Array>
          </mxGeometry>
        </mxCell>
        <mxCell id="Vg4lKlhlYnW9HOSIbNBA-12" value="Request for resource using auth token" style="edgeLabel;html=1;align=center;verticalAlign=middle;resizable=0;points=[];" vertex="1" connectable="0" parent="wpB4q-9WlWIPLCTxeXKb-30">
          <mxGeometry x="-0.3269" relative="1" as="geometry">
            <mxPoint x="151" as="offset" />
          </mxGeometry>
        </mxCell>
        <mxCell id="wpB4q-9WlWIPLCTxeXKb-31" value="&lt;font style=&quot;font-size: 15px&quot;&gt;Web user From Web App/ Web Site&lt;/font&gt;" style="text;html=1;align=center;verticalAlign=middle;resizable=0;points=[];autosize=1;strokeColor=none;" parent="1" vertex="1">
          <mxGeometry x="8" y="101" width="250" height="20" as="geometry" />
        </mxCell>
        <mxCell id="wpB4q-9WlWIPLCTxeXKb-32" value="&lt;font style=&quot;font-size: 15px&quot;&gt;Mobile Application&lt;/font&gt;" style="text;html=1;align=center;verticalAlign=middle;resizable=0;points=[];autosize=1;strokeColor=none;" parent="1" vertex="1">
          <mxGeometry x="676" y="96" width="140" height="20" as="geometry" />
        </mxCell>
        <mxCell id="wpB4q-9WlWIPLCTxeXKb-33" value="&lt;font style=&quot;font-size: 15px&quot;&gt;SeaPod 1&lt;/font&gt;" style="text;html=1;align=center;verticalAlign=middle;resizable=0;points=[];autosize=1;strokeColor=none;" parent="1" vertex="1">
          <mxGeometry x="80" y="690" width="80" height="20" as="geometry" />
        </mxCell>
        <mxCell id="wpB4q-9WlWIPLCTxeXKb-35" value="&lt;font style=&quot;font-size: 15px&quot;&gt;SeaPod N&lt;/font&gt;" style="text;html=1;align=center;verticalAlign=middle;resizable=0;points=[];autosize=1;strokeColor=none;" parent="1" vertex="1">
          <mxGeometry x="611" y="690" width="80" height="20" as="geometry" />
        </mxCell>
        <mxCell id="wpB4q-9WlWIPLCTxeXKb-36" value="" style="shape=image;html=1;verticalAlign=top;verticalLabelPosition=bottom;labelBackgroundColor=#ffffff;imageAspect=0;aspect=fixed;image=https://cdn4.iconfinder.com/data/icons/logos-and-brands/512/272_Raspberry_Pi_logo-128.png" parent="1" vertex="1">
          <mxGeometry x="362" y="610" width="79" height="80" as="geometry" />
        </mxCell>
        <mxCell id="wpB4q-9WlWIPLCTxeXKb-37" value="&lt;font style=&quot;font-size: 15px&quot;&gt;SeaPod 2&lt;/font&gt;" style="text;html=1;align=center;verticalAlign=middle;resizable=0;points=[];autosize=1;strokeColor=none;" parent="1" vertex="1">
          <mxGeometry x="367" y="690" width="80" height="20" as="geometry" />
        </mxCell>
        <mxCell id="wpB4q-9WlWIPLCTxeXKb-38" value="&lt;b&gt;&lt;font style=&quot;font-size: 24px&quot;&gt;.&amp;nbsp; .&amp;nbsp; .&amp;nbsp; .&amp;nbsp; .&amp;nbsp;&lt;/font&gt;&lt;/b&gt;" style="text;html=1;align=center;verticalAlign=middle;resizable=0;points=[];autosize=1;strokeColor=none;" parent="1" vertex="1">
          <mxGeometry x="474" y="654" width="110" height="20" as="geometry" />
        </mxCell>
        <mxCell id="wpB4q-9WlWIPLCTxeXKb-39" value="" style="endArrow=classic;html=1;rounded=0;edgeStyle=orthogonalEdgeStyle;" parent="1" edge="1">
          <mxGeometry relative="1" as="geometry">
            <mxPoint x="402" y="410" as="sourcePoint" />
            <mxPoint x="401.5" y="610" as="targetPoint" />
            <Array as="points">
              <mxPoint x="402" y="410" />
            </Array>
          </mxGeometry>
        </mxCell>
        <mxCell id="wpB4q-9WlWIPLCTxeXKb-40" value="&lt;font style=&quot;font-size: 15px&quot;&gt;SSH Tunnel&lt;/font&gt;" style="edgeLabel;resizable=0;html=1;align=center;verticalAlign=middle;" parent="wpB4q-9WlWIPLCTxeXKb-39" connectable="0" vertex="1">
          <mxGeometry relative="1" as="geometry">
            <mxPoint y="54" as="offset" />
          </mxGeometry>
        </mxCell>
        <mxCell id="Vg4lKlhlYnW9HOSIbNBA-7" value="&lt;span style=&quot;font-size: 15px&quot;&gt;Amazon Cognito&lt;/span&gt;" style="text;html=1;align=center;verticalAlign=middle;resizable=0;points=[];autosize=1;strokeColor=none;" vertex="1" parent="1">
          <mxGeometry x="349" y="80" width="130" height="20" as="geometry" />
        </mxCell>
        <mxCell id="Vg4lKlhlYnW9HOSIbNBA-13" value="" style="endArrow=classic;html=1;rounded=0;edgeStyle=orthogonalEdgeStyle;entryX=0;entryY=0.5;entryDx=0;entryDy=0;entryPerimeter=0;" edge="1" parent="1">
          <mxGeometry relative="1" as="geometry">
            <mxPoint x="99" y="136" as="sourcePoint" />
            <mxPoint x="369" y="136" as="targetPoint" />
            <Array as="points">
              <mxPoint x="160" y="136" />
              <mxPoint x="160" y="136" />
            </Array>
          </mxGeometry>
        </mxCell>
        <mxCell id="Vg4lKlhlYnW9HOSIbNBA-14" value="Request for access using credentials if necessary" style="edgeLabel;resizable=0;html=1;align=center;verticalAlign=middle;" connectable="0" vertex="1" parent="Vg4lKlhlYnW9HOSIbNBA-13">
          <mxGeometry relative="1" as="geometry">
            <mxPoint as="offset" />
          </mxGeometry>
        </mxCell>
        <mxCell id="Vg4lKlhlYnW9HOSIbNBA-15" value="return auth token&amp;nbsp;" style="edgeStyle=orthogonalEdgeStyle;rounded=0;orthogonalLoop=1;jettySize=auto;html=1;" edge="1" parent="1">
          <mxGeometry relative="1" as="geometry">
            <mxPoint x="369" y="179" as="sourcePoint" />
            <mxPoint x="100" y="179" as="targetPoint" />
            <Array as="points">
              <mxPoint x="369" y="179" />
            </Array>
          </mxGeometry>
        </mxCell>
        <mxCell id="Vg4lKlhlYnW9HOSIbNBA-16" value="Identity Provider which has trusted&lt;br&gt;&amp;nbsp;agreement with other service provider&lt;br&gt;&amp;nbsp;like google, fb or other server" style="text;html=1;align=center;verticalAlign=middle;resizable=0;points=[];autosize=1;strokeColor=none;horizontal=1;labelBorderColor=none;" vertex="1" parent="1">
          <mxGeometry x="290" y="30" width="220" height="50" as="geometry" />
        </mxCell>
      </root>
    </mxGraphModel>
  </diagram>
</mxfile>
